<svg xmlns="http://www.w3.org/2000/svg" viewBox="0 0 760 620" role="img" aria-labelledby="title desc">
  <title id="title">Buquê principal</title>
  <desc id="desc">Ilustração de vaso com flores coloridas</desc>
  <defs>
    <linearGradient id="bg" x1="0" y1="0" x2="1" y2="1">
      <stop offset="0" stop-color="#fff9f0"/>
      <stop offset="1" stop-color="#dcecdf"/>
    </linearGradient>
    <linearGradient id="vaso" x1="0" y1="0" x2="0" y2="1">
      <stop offset="0" stop-color="#4f7f5f"/>
      <stop offset="1" stop-color="#234236"/>
    </linearGradient>
    <filter id="shadow" x="-20%" y="-20%" width="140%" height="140%">
      <feDropShadow dx="0" dy="18" stdDeviation="18" flood-color="#234236" flood-opacity="0.18"/>
    </filter>
  </defs>
  <rect x="20" y="20" width="720" height="580" rx="56" fill="url(#bg)"/>
  <circle cx="130" cy="124" r="44" fill="#ffe7ef"/>
  <circle cx="637" cy="112" r="70" fill="#fff0c9" opacity="0.9"/>
  <circle cx="642" cy="493" r="48" fill="#ffe7ef" opacity="0.9"/>

  <g stroke="#4f7f5f" stroke-width="12" stroke-linecap="round" fill="none">
    <path d="M370 410 C350 310 320 235 253 160"/>
    <path d="M375 410 C390 300 430 220 514 144"/>
    <path d="M375 410 C365 310 370 240 373 132"/>
    <path d="M370 410 C330 330 270 300 176 284"/>
    <path d="M385 410 C430 325 496 283 604 258"/>
    <path d="M376 410 C332 290 300 235 260 233" opacity=".75"/>
    <path d="M377 410 C420 293 458 245 489 234" opacity=".75"/>
  </g>

  <g fill="#4f7f5f" opacity="0.9">
    <ellipse cx="288" cy="276" rx="42" ry="18" transform="rotate(-22 288 276)"/>
    <ellipse cx="455" cy="279" rx="45" ry="18" transform="rotate(25 455 279)"/>
    <ellipse cx="328" cy="212" rx="36" ry="15" transform="rotate(38 328 212)"/>
    <ellipse cx="413" cy="207" rx="38" ry="16" transform="rotate(-36 413 207)"/>
  </g>

  <g filter="url(#shadow)">
    <g transform="translate(253 160)">
      <circle r="22" fill="#f6c65b"/>
      <ellipse cx="0" cy="-35" rx="22" ry="38" fill="#d95f8c"/>
      <ellipse cx="0" cy="35" rx="22" ry="38" fill="#d95f8c"/>
      <ellipse cx="-35" cy="0" rx="38" ry="22" fill="#e88dad"/>
      <ellipse cx="35" cy="0" rx="38" ry="22" fill="#e88dad"/>
    </g>
    <g transform="translate(514 144)">
      <circle r="20" fill="#f6c65b"/>
      <ellipse cx="0" cy="-34" rx="20" ry="36" fill="#e96e9b"/>
      <ellipse cx="0" cy="34" rx="20" ry="36" fill="#e96e9b"/>
      <ellipse cx="-34" cy="0" rx="36" ry="20" fill="#d95f8c"/>
      <ellipse cx="34" cy="0" rx="36" ry="20" fill="#d95f8c"/>
    </g>
    <g transform="translate(373 132)">
      <circle r="22" fill="#f6c65b"/>
      <ellipse cx="0" cy="-36" rx="24" ry="40" fill="#fff0c9"/>
      <ellipse cx="0" cy="36" rx="24" ry="40" fill="#fff0c9"/>
      <ellipse cx="-36" cy="0" rx="40" ry="24" fill="#f6c65b"/>
      <ellipse cx="36" cy="0" rx="40" ry="24" fill="#f6c65b"/>
    </g>
    <g transform="translate(176 284)">
      <circle r="18" fill="#f6c65b"/>
      <ellipse cx="0" cy="-28" rx="18" ry="32" fill="#d95f8c"/>
      <ellipse cx="0" cy="28" rx="18" ry="32" fill="#d95f8c"/>
      <ellipse cx="-28" cy="0" rx="32" ry="18" fill="#e88dad"/>
      <ellipse cx="28" cy="0" rx="32" ry="18" fill="#e88dad"/>
    </g>
    <g transform="translate(604 258)">
      <circle r="18" fill="#f6c65b"/>
      <ellipse cx="0" cy="-28" rx="18" ry="32" fill="#fff0c9"/>
      <ellipse cx="0" cy="28" rx="18" ry="32" fill="#fff0c9"/>
      <ellipse cx="-28" cy="0" rx="32" ry="18" fill="#f6c65b"/>
      <ellipse cx="28" cy="0" rx="32" ry="18" fill="#f6c65b"/>
    </g>
  </g>

  <g filter="url(#shadow)">
    <path d="M250 388 H500 L462 548 H288 Z" fill="url(#vaso)"/>
    <path d="M270 388 H480 C493 388 504 399 504 412 C504 425 493 436 480 436 H270 C257 436 246 425 246 412 C246 399 257 388 270 388Z" fill="#fff9f0"/>
    <path d="M295 434 H456 L432 528 H318 Z" fill="#4f7f5f" opacity="0.34"/>
  </g>
</svg>
