<svg xmlns="http://www.w3.org/2000/svg" viewBox="0 0 640 480" role="img" aria-labelledby="title desc">
  <title id="title">Cesta especial</title>
  <desc id="desc">Cesta de presentes com flores</desc>
  <rect width="640" height="480" fill="#fff0c9"/>
  <circle cx="520" cy="385" r="70" fill="#dcecdf" opacity=".8"/>
  <circle cx="100" cy="96" r="58" fill="#ffe7ef" opacity=".85"/>
  <path d="M220 296 C220 198 420 198 420 296" fill="none" stroke="#8b5e34" stroke-width="18" stroke-linecap="round"/>
  <g stroke="#4f7f5f" stroke-width="8" stroke-linecap="round">
    <line x1="320" y1="190" x2="320" y2="322"/>
    <line x1="250" y1="230" x2="292" y2="322"/>
    <line x1="390" y1="230" x2="348" y2="322"/>
  </g>
  <g>
    <g transform="translate(250 210)"><circle r="17" fill="#f6c65b"/><ellipse cy="-26" rx="17" ry="30" fill="#d95f8c"/><ellipse cy="26" rx="17" ry="30" fill="#d95f8c"/><ellipse cx="-26" rx="30" ry="17" fill="#e88dad"/><ellipse cx="26" rx="30" ry="17" fill="#e88dad"/></g>
    <g transform="translate(320 172)"><circle r="19" fill="#f6c65b"/><ellipse cy="-30" rx="20" ry="34" fill="#fff9f0"/><ellipse cy="30" rx="20" ry="34" fill="#fff9f0"/><ellipse cx="-30" rx="34" ry="20" fill="#f6c65b"/><ellipse cx="30" rx="34" ry="20" fill="#f6c65b"/></g>
    <g transform="translate(390 210)"><circle r="17" fill="#f6c65b"/><ellipse cy="-26" rx="17" ry="30" fill="#d95f8c"/><ellipse cy="26" rx="17" ry="30" fill="#d95f8c"/><ellipse cx="-26" rx="30" ry="17" fill="#e88dad"/><ellipse cx="26" rx="30" ry="17" fill="#e88dad"/></g>
  </g>
  <path d="M195 290 H445 L410 432 H230 Z" fill="#b9854c"/>
  <path d="M212 314 H428" stroke="#8b5e34" stroke-width="12" stroke-linecap="round"/>
  <path d="M230 354 H410" stroke="#8b5e34" stroke-width="12" stroke-linecap="round"/>
  <path d="M260 290 L282 432" stroke="#8b5e34" stroke-width="10" opacity=".7"/>
  <path d="M380 290 L358 432" stroke="#8b5e34" stroke-width="10" opacity=".7"/>
  <rect x="270" y="338" width="100" height="72" rx="12" fill="#ffe7ef"/>
  <path d="M320 338 V410" stroke="#d95f8c" stroke-width="8"/>
  <path d="M270 374 H370" stroke="#d95f8c" stroke-width="8"/>
</svg>
